<svg xmlns="http://www.w3.org/2000/svg" version="1.1" xmlns:xlink="http://www.w3.org/1999/xlink" width="512"
  height="512" x="0" y="0" viewBox="0 0 512 512" style="enable-background:new 0 0 512 512" xml:space="preserve"
  class="">
  <g>
    <path
      d="m152.49 407.617 23.833-113.311-113.311 23.833 35.736 16.67L55 378.558l37.071 37.071 43.749-43.749zM457 210.539H335.706M335.706 174.441h76.699M457 318.049H335.706M335.706 281.951h76.699M457 425.559H335.706M335.706 389.461h76.699"
      style="stroke-width:22;stroke-linecap:round;stroke-linejoin:round;stroke-miterlimit:10;" fill="none"
      stroke="#000000" stroke-width="22" stroke-linecap="round" stroke-linejoin="round" stroke-miterlimit="10"
      data-original="#000000" class="" />
    <path
      d="M471 487.217H41c-16.569 0-30-13.431-30-30V54.783c0-16.569 13.431-30 30-30h430c16.569 0 30 13.431 30 30v402.433c0 16.569-13.431 30.001-30 30.001zM11 112.783h490"
      style="stroke-width:22;stroke-linecap:round;stroke-linejoin:round;stroke-miterlimit:10;" fill="none"
      stroke="#000000" stroke-width="22" stroke-linecap="round" stroke-linejoin="round" stroke-miterlimit="10"
      data-original="#000000" class="" />
    <path
      d="M222.928 266.928h66.144v66.144h-66.144zM222.928 156.783h66.144v66.144h-66.144zM222.928 377.072h66.144v66.144h-66.144zM55 68.783h0M99 68.783h0M143 68.783h0M335.706 68.783H457"
      style="stroke-width:22;stroke-linecap:round;stroke-linejoin:round;stroke-miterlimit:10;" fill="none"
      stroke="#33cccc" stroke-width="22" stroke-linecap="round" stroke-linejoin="round" stroke-miterlimit="10"
      data-original="#33cccc" class="" />
  </g>
</svg>