<svg enable-background="new 0 0 512 512" viewBox="0 0 512 512" xmlns="http://www.w3.org/2000/svg"><g><path d="m119.9 155c0 19.4 15.8 35.2 35.2 35.2s35.2-15.8 35.2-35.2-15.8-35.2-35.2-35.2c-19.5.1-35.2 15.8-35.2 35.2zm55.3 0c0 11.1-9 20.2-20.2 20.2s-20.2-9-20.2-20.2 9-20.2 20.2-20.2 20.2 9.1 20.2 20.2z"></path><path d="m305.3 404.1h100.2v15h-100.2z"></path><path d="m280.8 404.1h15.7v15h-15.7z"></path><path d="m411.5 303.1h15v15h-15z"></path><path d="m129.4 441.5h15v15h-15z"></path><path d="m456.5 286 49.9-163-49.9-15.3v-52.2h-170.5l-163-49.9-15.3 49.9h-52.2v170.5l-49.9 163 49.9 15.3v52.2h58.9v-15h-43.9v-371h371v371h-282.1v15h66.6l163 49.9 15.3-49.9h52.2zm-432.1 93.1 31.2-101.8v111.4zm108.5-354.7 101.8 31.2h-111.3zm246.2 463.2-101.8-31.2h111.4zm108.5-354.7-31.2 101.8v-111.3z"></path><path d="m85.5 202.2h15v15h-15z"></path><path d="m85.5 381.7h341v-48.7h-15v33.7h-81.5c5-4 9.7-8.5 14.6-13.1 14.3-13.5 28.9-27.4 51.9-33v-15.3c-20.5 4.2-35.5 14-47.9 24.4v-21.3c14.4-3.4 25.1-16.3 25.1-31.7 0-16.7-12.7-48.7-32.6-48.7s-32.6 32-32.6 48.7c0 15.4 10.7 28.3 25.1 31.7v24.6c-21.7-11.5-43.1-15.7-63.8-15.4v-13.9c11.7-3.3 20.3-14 20.3-26.8 0-14-10.8-40.9-27.8-40.9s-27.8 27-27.8 41c0 12.7 8.6 23.5 20.3 26.8v13.7c-28.1-2.2-46.3-14.3-64-26.1-23.2-15.5-47.2-31.4-90.3-23.1v-36.1h-15zm238-105c0-13.2 10.7-33.7 17.6-33.7s17.6 20.5 17.6 33.7c0 9.7-7.9 17.6-17.6 17.6s-17.6-7.9-17.6-17.6zm5.5 70.9c-11.9 11-22.2 19.1-36.4 19.1h-130.9c2.8-1.3 5.6-2.6 8.5-3.9 27.8-12.9 59.5-27.7 93-29.9h.9v-.1c21.1-1.2 42.9 2.5 64.9 14.8zm-79.5-70.6c0-10.2 8.5-25.9 12.8-25.9s12.8 15.7 12.8 25.9c0 7.1-5.7 12.8-12.8 12.8s-12.8-5.7-12.8-12.8zm-67 26.9c11.6 7.7 24 16 39.5 21.7-21.2 6.4-40.8 15.5-58.1 23.6-20.2 9.4-37.6 17.5-49.5 17.5h-13.9v-83.1c38.9-8.4 58.9 4.9 82 20.3z"></path><path d="m426.5 85.5h-341v101.7h15v-86.7h311v187.6h15z"></path><path d="m314.2 133.8h75.4v15h-75.4z"></path><path d="m284.2 133.8h15v15h-15z"></path><path d="m219.8 179.7h75.4v15h-75.4z"></path><path d="m310.2 179.7h15v15h-15z"></path></g></svg>